<svg version="1.1" xmlns="http://www.w3.org/2000/svg" xmlns:xlink="http://www.w3.org/1999/xlink" width="64px" height="64px" viewBox="0,0,256,256"><g fill="#008cff" fill-rule="nonzero" stroke="none" stroke-width="1" stroke-linecap="butt" stroke-linejoin="miter" stroke-miterlimit="10" stroke-dasharray="" stroke-dashoffset="0" font-family="none" font-weight="none" font-size="none" text-anchor="none" style="mix-blend-mode: normal"><g transform="scale(4,4)"><path d="M16,6c-3.8537,0 -7,3.1463 -7,7c0,3.8537 3.1463,7 7,7h16.34375l-22.78906,26.60156c-0.0073,0.00834 -0.01446,0.01681 -0.02148,0.02539c-1.6798,2.09946 -2.00631,4.9828 -0.8418,7.40625c1.16458,2.42241 3.61957,3.9668 6.30859,3.9668h33c3.8537,0 7,-3.1463 7,-7c0,-3.8537 -3.1463,-7 -7,-7h-2h-15.79687l12.54883,-14.3418c0.24786,-0.28383 0.31515,-0.68288 0.17407,-1.03229c-0.14108,-0.34941 -0.46659,-0.58986 -0.84204,-0.62201c-1.72584,-0.14384 -2.64848,-0.03181 -3.87305,-0.01562c0.34388,-1.15006 0.67455,-2.34129 0.78711,-3.91602c0.02502,-0.28704 -0.07498,-0.57093 -0.27437,-0.77892c-0.19939,-0.208 -0.4788,-0.31989 -0.76665,-0.30701c-0.51276,0.02225 -0.92544,0.42902 -0.95508,0.94141c-0.1215,1.69995 -0.43158,2.98567 -0.80664,4.05078c-2.06311,0.16519 -3.6095,0.48732 -4.67969,0.92578c-1.16242,0.47715 -1.70105,1.67273 -1.59766,2.72266c0.10339,1.04992 0.91343,2.13236 2.16992,2.29102c1.5903,0.20145 3.8407,-0.92931 5.36133,-3.9668c0.67283,-0.02381 1.49065,-0.0087 2.36914,0.02344l-12.57031,14.36719c-0.25802,0.29525 -0.3197,0.71404 -0.15776,1.07114c0.16194,0.3571 0.51761,0.58663 0.90972,0.58706h0.48242h17.51758h2c2.7723,0 5,2.2277 5,5c0,2.7723 -2.2277,5 -5,5h-33c-1.92497,0 -3.67244,-1.1004 -4.50586,-2.83398c-0.83349,-1.73455 -0.60064,-3.78652 0.60156,-5.28906l24.18164,-28.22656c0.25386,-0.29662 0.31191,-0.71386 0.14864,-1.0685c-0.16326,-0.35465 -0.51798,-0.58187 -0.90841,-0.58189h-18.51758c-2.7723,0 -5,-2.2277 -5,-5c0,-2.7723 2.2277,-5 5,-5h32c1.92497,0 3.67244,1.1004 4.50586,2.83398c0.83217,1.73182 0.59961,3.77935 -0.59766,5.28125l-6.64258,7.20703c-0.25922,0.25946 -0.35562,0.63998 -0.25121,0.99157c0.10441,0.35158 0.39289,0.61781 0.7517,0.69373c0.35881,0.07592 0.7304,-0.05066 0.96826,-0.32982l6.68555,-7.25195c0.01624,-0.01702 0.03188,-0.03461 0.04688,-0.05273c1.67981,-2.09947 2.00631,-4.9828 0.8418,-7.40625c-1.16458,-2.42241 -3.61957,-3.9668 -6.30859,-3.9668zM35.0918,30.0332c-1.14239,1.54464 -2.40247,1.94466 -2.75195,1.90039c-0.3195,-0.04034 -0.40229,-0.20387 -0.43164,-0.50195c-0.02935,-0.29808 0.06061,-0.55189 0.36719,-0.67773c0.73326,-0.30036 1.65016,-0.54506 2.81641,-0.7207z"></path></g></g></svg>